<?xml version="1.0" encoding="UTF-8"?>
<svg version="1.1" xmlns="http://www.w3.org/2000/svg" width="16" height="16">
<path d="M0 0 C0.66 0.33 1.32 0.66 2 1 C1.41444623 5.68443012 -0.30480319 10.12405031 -3 14 C-5.13671875 15.23828125 -5.13671875 15.23828125 -7 16 C-7.33 15.34 -7.66 14.68 -8 14 C-8.639375 13.855625 -9.27875 13.71125 -9.9375 13.5625 C-12 13 -12 13 -14 10 C-13.8125 6.4375 -13.8125 6.4375 -13 3 C-9.90768389 0.93845593 -9.39241113 0.77605555 -5.9375 0.9375 C-2.21441073 1.29943567 -2.21441073 1.29943567 0 0 Z M-12 5 C-11 8 -11 8 -11 8 Z M-8 6 C-8.33 6.66 -8.66 7.32 -9 8 C-7.68 7.67 -6.36 7.34 -5 7 C-5.99 6.67 -6.98 6.34 -8 6 Z M-4 9 C-3 11 -3 11 -3 11 Z M-7 10 C-6 12 -6 12 -6 12 Z " fill="#2F3D9E" transform="translate(14,0)"/>
</svg>
